<?xml version="1.0" encoding="UTF-8" standalone="no"?>

<svg
   version="1.1"
   id="svg182"
   width="480.22223"
   height="480"
   viewBox="0 0 480.22223 480"
>
    <path
       style="fill:#ffff00;stroke-width:0.111111;fill-opacity:1"
       d="m 188.88889,483.5074 c -34.14553,-0.27678 -48.85912,-0.88178 -63.55555,-2.61333 -27.790475,-3.2743 -50.077845,-11.25698 -68.642605,-24.58572 -8.87933,-6.37502 -17.19208,-14.26142 -24.05187,-22.81829 -13.00282,-16.21967 -21.57388,-35.40558 -26.1490501,-58.53338 -1.92501,-9.73107 -3.10102,-20.36397 -3.76658,-34.05555 -1.22167,-25.13172 -1.62529,-53.69131 -1.40305,-99.27777 0.0702,-14.39167 0.12766,-30.84167 0.12779,-36.55556 4.6e-4,-21.65909 0.35764,-37.42772 1.38674,-61.22223 0.33819,-7.81951 0.7383,-12.77834 1.55924,-19.32465 3.0149,-24.04139 10.3854301,-44.462577 22.6333901,-62.709297 4.27501,-6.3688 8.61377,-11.67675 14.08211,-17.22774 12.50484,-12.69386 27.48669,-22.19461 45.48286,-28.84297 14.139865,-5.22372 28.933785,-8.3613201 44.018795,-9.3358301 5.71223,-0.36901 31.00664,-1.30846 44.94445,-1.66926 26.0351,-0.67395 101.5814,-0.73676 133.88889,-0.11131 15.40591,0.29824 30.23517,1.02525 45.44444,2.22793 28.56498,2.25877 51.85213,10.5779201 72.55556,25.9198901 5.24551,3.88711 9.37476,7.44762 14.00117,12.07278 5.69675,5.6952 10.40112,11.43966 14.8778,18.16713 14.10741,21.20033 21.61015,46.950327 23.3419,80.111107 0.0638,1.22222 0.21495,4.54722 0.33582,7.38888 0.21446,5.0416 0.21979,7.31565 0.2202,93.94446 0,77.24034 -0.0211,89.17488 -0.16524,91.83333 -0.70459,12.995 -1.75363,25.3329 -2.73026,32.11111 -3.88564,26.96785 -13.72827,49.43652 -29.98275,68.44444 -4.58835,5.36559 -10.59452,11.22364 -15.93231,15.53941 -16.9171,13.678 -37.36885,22.64229 -61.74411,27.06328 -10.44569,1.89456 -21.93974,2.97547 -36.11111,3.39595 -8.50172,0.25226 -44.87197,0.51816 -83.5,0.61048 -13.32222,0.0318 -30.27222,0.0751 -37.66667,0.096 -7.39444,0.021 -17.96944,0.002 -23.5,-0.0433 z m 59.5,-43.21517 c 4.88889,-0.0588 16.78889,-0.15911 26.44445,-0.22286 33.99121,-0.22446 51.62515,-0.4827 61,-0.89332 13.71083,-0.60054 23.68388,-1.90379 34,-4.44303 13.72886,-3.37926 23.89033,-8.18322 33.39707,-15.78886 6.59627,-5.27721 12.15321,-11.2943 16.63844,-18.01625 8.51192,-12.75668 13.40978,-27.6554 15.51456,-47.19344 0.83111,-7.71497 1.24162,-15.2249 1.61559,-29.55556 0.063,-2.41389 0.1649,-5.73889 0.22645,-7.38889 0.51782,-13.88001 0.54002,-33.60145 0.10709,-95.16666 -0.42707,-60.73246 -0.58357,-70.45379 -1.28343,-79.72224 -1.11743,-14.79829 -3.62895,-27.42643 -7.56207,-38.02268 -3.34173,-9.002987 -7.64706,-16.436267 -13.75884,-23.755087 -9.43197,-11.29469 -21.39976,-19.33144 -36.39486,-24.4403 -10.47488,-3.56881 -21.82433,-5.58015 -37,-6.5571 -9.57015,-0.61609 -32.1891,-1.31126 -48.77778,-1.49913 -15.5768,-0.17642 -84.03377,-0.26596 -96.38889,-0.12608 -30.10845,0.34087 -52.07688,1.08784 -62.55556,2.12701 -10.21904,1.01342 -19.40063,2.75865 -26.92069,5.11706 -21.489395,6.73942 -37.436985,19.62165 -47.992255,38.76743 -5.9949,10.873927 -9.78407,23.833237 -11.35444,38.833327 -0.96237,9.19252 -2.00999,32.33482 -2.36654,52.27779 -0.2749,15.37587 -0.0818,117.74266 0.24451,129.61111 0.6347,23.08576 0.73335,25.99037 1.06048,31.22222 1.46998,23.50939 6.6865,41.54869 16.07697,55.5959 3.1049,4.64462 6.10996,8.26721 10.15525,12.2421 14.10157,13.85619 33.365995,22.265 56.485605,24.65563 10.05254,1.03946 37.81032,2.13465 62.16667,2.45281 8.31712,0.10865 44.86113,0.0378 57.22222,-0.1109 z m -11.05555,-73.12147 c -14.95796,-0.44105 -30.16163,-3.80846 -44.11111,-9.77005 -18.53173,-7.91989 -34.83626,-20.22883 -47.61175,-35.94402 -15.45417,-19.01025 -24.8428,-41.95097 -27.10183,-66.22222 -0.35281,-3.7906 -0.42238,-6.22197 -0.36494,-12.75543 0.0583,-6.63605 0.0957,-7.34604 0.64144,-12.18902 2.73684,-24.28751 12.75753,-47.39192 28.64919,-66.05556 4.35653,-5.11646 10.36722,-11.06108 15.399,-15.22976 19.09305,-15.81804 42.03883,-25.3615 66.35264,-27.59698 4.57018,-0.42019 6.53386,-0.48096 13.57669,-0.42014 8.03183,0.0694 10.9211,0.27682 17.51511,1.25762 32.04807,4.76688 61.35858,22.7123 80.83291,49.49012 6.44932,8.86802 11.90852,18.99742 15.71879,29.16581 4.10246,10.94811 6.47368,21.71431 7.5251,34.16667 0.20088,2.37897 0.20197,15.4008 10e-4,17.72222 -0.83962,9.72246 -2.272,17.55045 -4.74246,25.91769 -7.45678,25.25548 -23.15871,47.7823 -44.44694,63.76592 -19.01195,14.27455 -41.33774,22.68299 -64.85476,24.42594 -2.16075,0.16014 -8.54574,0.40546 -9.64524,0.3706 -0.275,-0.009 -1.775,-0.0535 -3.33334,-0.0994 z m 9.22222,-43.66742 c 22.34834,-1.45278 43.01918,-12.28158 57.14328,-29.93554 5.82854,-7.28521 10.43281,-15.79273 13.378,-24.71918 4.36791,-13.23851 5.18429,-27.53815 2.35358,-41.22526 -1.74811,-8.45256 -5.00636,-16.82715 -9.46414,-24.32545 -6.11509,-10.28601 -14.49619,-19.1096 -24.46628,-25.758 -7.08295,-4.72315 -14.76896,-8.2321 -23.04783,-10.52216 -11.6246,-3.21554 -24.4278,-3.70164 -36.34106,-1.37975 -11.81523,2.30279 -22.93507,7.25592 -32.65358,14.54494 -14.5833,10.93769 -25.10171,26.763 -29.50067,44.38486 -3.21302,12.87108 -3.15951,26.52763 0.15412,39.33333 1.47032,5.6821 3.2742,10.47525 5.9588,15.83334 4.91232,9.80427 11.80381,18.4982 20.23047,25.52163 15.75102,13.12813 35.66046,19.58606 56.25531,18.24724 z M 367.16667,144.89195 c -5.18932,-0.50104 -9.53705,-2.01459 -13.74571,-4.78523 -2.14909,-1.41479 -4.33838,-3.3824 -6.27259,-5.63746 -3.37086,-3.93005 -5.71985,-9.08164 -6.54134,-14.34591 -0.24277,-1.5557 -0.33366,-5.23487 -0.17155,-6.94445 0.61734,-6.51063 3.5254,-12.72265 8.11876,-17.342747 4.53749,-4.56392 10.02158,-7.33714 16.50132,-8.34448 2.08411,-0.324 6.20685,-0.35002 8.22222,-0.0519 5.34912,0.79124 9.98094,2.75308 14.07455,5.96136 1.17781,0.92309 3.38147,3.11565 4.35525,4.33334 2.8549,3.569907 4.83192,7.774977 5.77445,12.282097 0.47978,2.29429 0.54681,3.21945 0.48794,6.73433 -0.0521,3.10799 -0.0707,3.3374 -0.39677,4.87925 -0.86455,4.08805 -2.16225,7.24162 -4.29509,10.43764 -2.9708,4.45168 -6.56676,7.60916 -11.33366,9.95166 -2.76299,1.35776 -5.33357,2.16661 -8.4641,2.66326 -1.03899,0.16485 -5.30817,0.30632 -6.31368,0.20924 z"
       id="path309" />
  </g>
</svg>
