<?xml version="1.0" encoding="UTF-8" standalone="no"?>
<!-- Created with Inkscape (http://www.inkscape.org/) -->

<svg
   version="1.1"
   id="svg132"
   width="259"
   height="194"
   viewBox="0 0 259 194"
   sodipodi:docname="Bootstrap-logo.svg"
   inkscape:version="1.2.2 (b0a8486, 2022-12-01)"
   xmlns:inkscape="http://www.inkscape.org/namespaces/inkscape"
   xmlns:sodipodi="http://sodipodi.sourceforge.net/DTD/sodipodi-0.dtd"
   xmlns="http://www.w3.org/2000/svg"
   xmlns:svg="http://www.w3.org/2000/svg">
  <defs
     id="defs136" />
  <sodipodi:namedview
     id="namedview134"
     pagecolor="#ffffff"
     bordercolor="#000000"
     borderopacity="0.25"
     inkscape:showpageshadow="2"
     inkscape:pageopacity="0.0"
     inkscape:pagecheckerboard="0"
     inkscape:deskcolor="#d1d1d1"
     showgrid="false"
     inkscape:zoom="2.4329897"
     inkscape:cx="91.451271"
     inkscape:cy="99.260593"
     inkscape:window-width="1390"
     inkscape:window-height="905"
     inkscape:window-x="0"
     inkscape:window-y="23"
     inkscape:window-maximized="0"
     inkscape:current-layer="g138" />
  <g
     inkscape:groupmode="layer"
     inkscape:label="Image"
     id="g138">
    <path
       style="fill:#6f2cf3;fill-opacity:1"
       d="m 78.656762,155.33659 c -6.535853,-3.23525 -8.100522,-7.1887 -8.69935,-21.98065 -0.775473,-19.15534 -5.197287,-30.23353 -13.226461,-33.13692 -3.114772,-1.126323 -3.4979,-1.658973 -3.4979,-4.863083 0,-3.20411 0.383128,-3.73677 3.4979,-4.86308 8.029174,-2.90339 12.450988,-13.98158 13.226461,-33.13692 0.601697,-14.86282 2.173829,-18.804123 8.775454,-21.999915 3.954532,-1.914357 6.174739,-2.00009 51.795674,-2.00009 54.26884,0 53.87535,-0.04989 58.12771,7.369806 2.03921,3.558099 2.43575,5.861639 2.86279,16.630199 0.75925,19.14609 5.18034,30.23114 13.21611,33.13692 3.11477,1.12631 3.4979,1.65897 3.4979,4.86308 0,3.20411 -0.38313,3.73676 -3.4979,4.863083 -8.02917,2.90339 -12.45099,13.98158 -13.22646,33.13692 -0.6017,14.86281 -2.17383,18.80412 -8.77546,21.99991 -3.9556,1.91488 -6.17385,2.00006 -52.0659,1.9993 -46.060667,-7.6e-4 -48.093609,-0.0797 -52.010568,-2.01856 z M 145.7105,127.24056 c 2.1876,-0.60733 5.63186,-2.75863 7.6539,-4.78068 8.71134,-8.71134 6.81741,-22.04578 -3.86577,-27.217423 -2.76519,-1.33861 -4.07093,-2.4354 -3.21229,-2.69824 4.78256,-1.46398 8.94671,-8.20854 8.94671,-14.49074 0,-5.75635 -3.19108,-10.52759 -9.00807,-13.46869 -4.20974,-2.12847 -5.52848,-2.25411 -20.99193,-2 l -16.5,0.27115 -0.26458,31.4908 c -0.14553,17.319943 -0.0472,32.057443 0.21861,32.750003 0.62547,1.62994 31.242,1.74887 37.02342,0.14382 z M 119.23305,108.85594 V 98.355937 l 8.25,0.006 c 4.5375,0.003 9.91703,0.46856 11.95451,1.03444 4.6574,1.293523 7.79549,5.182403 7.79549,9.660583 0,8.00288 -4.00176,10.29898 -17.95034,10.29898 h -10.04966 z m 0,-28.000003 v -9.5 h 9.04966 c 12.52347,0 15.95034,1.92221 15.95034,8.94692 0,6.627 -6.19481,10.03754 -18.25,10.0475 l -6.75,0.006 z"
       id="path417" />
  </g>
</svg>
